<svg xmlns="http://www.w3.org/2000/svg" xmlns:xlink="http://www.w3.org/1999/xlink" width="500" zoomAndPan="magnify" viewBox="0 0 375 374.999991" height="500" preserveAspectRatio="xMidYMid meet" version="1.0"><defs><g/><clipPath id="686e5e24b6"><path d="M 122.210938 214 L 149 214 L 149 249 L 122.210938 249 Z M 122.210938 214 " clip-rule="nonzero"/></clipPath><clipPath id="04684912f3"><path d="M 122.210938 214 L 148 214 L 148 246 L 122.210938 246 Z M 122.210938 214 " clip-rule="nonzero"/></clipPath></defs><path stroke-linecap="round" transform="matrix(0.273203, 0, 0, 0.273958, 122.303118, 123.637799)" fill-opacity="1" fill="#383333" fill-rule="nonzero" stroke-linejoin="round" d="M 101.39286 423.276207 C 94.52982 395.372169 65.319007 272.334899 76.957578 238.285414 C 90.126036 199.772995 134.764391 180.509656 145.730956 157.852775 C 156.697522 135.195894 129.273959 62.006613 154.49563 40.005627 C 201.707624 -1.301474 266.205901 0.837313 287.79588 1.26507 C 309.371561 1.678569 369.594735 -1.301474 416.80673 40.005627 C 442.014103 62.006613 414.604838 135.167377 425.557106 157.824258 C 436.509373 180.495397 481.176324 199.744478 494.344782 238.256897 C 505.983353 272.349157 476.77254 395.386428 469.895202 423.261948 " stroke="#231f20" stroke-width="2" stroke-opacity="1" stroke-miterlimit="4"/><path stroke-linecap="round" transform="matrix(0.273203, 0, 0, 0.273958, 122.303118, 123.637799)" fill-opacity="1" fill="#383333" fill-rule="nonzero" stroke-linejoin="round" d="M 374.884995 42.073121 C 374.884995 42.073121 390.369729 41.688139 403.237928 55.076944 C 410.501312 62.63399 406.65515 89.4116 406.65515 89.4116 " stroke="#231f20" stroke-width="2" stroke-opacity="1" stroke-miterlimit="4"/><path stroke-linecap="round" transform="matrix(0.273203, 0, 0, 0.273958, 122.303118, 123.637799)" fill-opacity="1" fill="#383333" fill-rule="nonzero" stroke-linejoin="round" d="M 437.853385 201.783454 C 437.853385 201.783454 455.997547 208.684606 467.007006 231.997381 " stroke="#231f20" stroke-width="2" stroke-opacity="1" stroke-miterlimit="4"/><path stroke-linecap="round" transform="matrix(0.273203, 0, 0, 0.273958, 122.303118, 123.637799)" fill-opacity="1" fill="#383333" fill-rule="nonzero" stroke-linejoin="round" d="M 144.615712 186.840464 C 144.615712 186.840464 126.471551 193.741616 115.504985 217.06865 " stroke="#231f20" stroke-width="2" stroke-opacity="1" stroke-miterlimit="4"/><path stroke-linecap="round" transform="matrix(0.273203, 0, 0, 0.273958, 122.303118, 123.637799)" fill-opacity="1" fill="#383333" fill-rule="nonzero" stroke-linejoin="round" d="M 148.304596 145.847052 C 148.304596 145.847052 313.517981 148.342303 422.95487 145.333743 " stroke="#231f20" stroke-width="2" stroke-opacity="1" stroke-miterlimit="4"/><path stroke-linecap="round" transform="matrix(0.273203, 0, 0, 0.273958, 122.303118, 123.637799)" fill-opacity="1" fill="#383333" fill-rule="nonzero" stroke-linejoin="round" d="M 430.203956 245.999305 C 430.203956 245.999305 412.474436 310.676215 412.545926 420.63837 " stroke="#231f20" stroke-width="2" stroke-opacity="1" stroke-miterlimit="4"/><path stroke-linecap="round" transform="matrix(0.273203, 0, 0, 0.273958, 122.303118, 123.637799)" fill-opacity="1" fill="#383333" fill-rule="nonzero" stroke-linejoin="round" d="M 358.4137 182.87658 C 358.4137 182.87658 343.801144 298.656234 343.858336 420.63837 " stroke="#231f20" stroke-width="2" stroke-opacity="1" stroke-miterlimit="4"/><path stroke-linecap="round" transform="matrix(0.273203, 0, 0, 0.273958, 122.303118, 123.637799)" fill-opacity="1" fill="#383333" fill-rule="nonzero" stroke-linejoin="round" d="M 144.386944 245.999305 C 144.386944 245.999305 162.116464 310.676215 162.044974 420.63837 " stroke="#231f20" stroke-width="2" stroke-opacity="1" stroke-miterlimit="4"/><path stroke-linecap="round" transform="matrix(0.273203, 0, 0, 0.273958, 122.303118, 123.637799)" fill-opacity="1" fill="#383333" fill-rule="nonzero" stroke-linejoin="round" d="M 213.789434 182.87658 C 213.789434 182.87658 228.416288 298.656234 228.344798 420.63837 " stroke="#231f20" stroke-width="2" stroke-opacity="1" stroke-miterlimit="4"/><path stroke-linecap="round" transform="matrix(0.273203, 0, 0, 0.273958, 122.303118, 123.637799)" fill-opacity="1" fill="#fdf4df" fill-rule="nonzero" stroke-linejoin="round" d="M 244.272769 77.006637 C 244.272769 77.006637 286.265994 71.445792 291.170208 77.006637 C 296.074422 82.553224 263.675155 93.304192 255.839851 95.884994 C 248.004547 98.451539 244.272769 77.006637 244.272769 77.006637 Z M 244.272769 77.006637 " stroke="#000000" stroke-width="2" stroke-opacity="1" stroke-miterlimit="4"/><path stroke-linecap="round" transform="matrix(0.273144, -0.00568954, 0.00567385, 0.273899, 121.486242, 124.174753)" fill-opacity="1" fill="#dd3833" fill-rule="nonzero" stroke-linejoin="round" d="M 120.734971 144.686148 C 120.723073 147.324307 120.554227 149.944945 120.185845 152.532914 C 119.831758 155.12118 119.293021 157.648563 118.584522 160.086851 C 117.876023 162.525138 117.012649 164.846115 115.980401 167.03523 C 114.962448 169.224641 113.790212 171.268231 112.478876 173.12353 C 111.18154 174.993381 109.759694 176.660983 108.21334 178.126335 C 106.681281 179.591984 105.0536 180.841722 103.359478 181.847632 C 101.651061 182.853245 99.890498 183.615327 98.07779 184.133877 C 96.265082 184.652427 94.429114 184.913784 92.584478 184.90399 C 90.72525 184.908154 88.899942 184.656314 87.094556 184.133915 C 85.274579 183.625475 83.517111 182.861624 81.807859 181.842064 C 80.09831 180.83676 78.479269 179.60515 76.936736 178.132681 C 75.408499 176.660508 73.984471 174.990838 72.678949 173.123965 C 71.373426 171.257093 70.199815 169.236082 69.173003 167.03272 C 68.145895 164.843613 67.278992 162.515217 66.571702 160.076043 C 65.864412 157.63687 65.330141 155.129982 64.969187 152.541125 C 64.608232 149.952267 64.434 147.324504 64.431602 144.686048 C 64.429205 142.047592 64.612346 139.427251 64.966433 136.838985 C 65.334815 134.251016 65.858961 131.737591 66.56746 129.299304 C 67.275959 126.861016 68.153628 124.540336 69.171581 122.350925 C 70.204125 120.147555 71.36177 118.117924 72.673402 116.248369 C 73.985033 114.378815 75.406879 112.711213 76.938938 111.245564 C 78.470997 109.779915 80.098382 108.544432 81.807095 107.524564 C 83.515512 106.518951 85.276075 105.756869 87.088783 105.238319 C 88.901195 104.734024 90.737163 104.472667 92.582095 104.468206 C 94.427028 104.463744 96.252039 104.729841 98.072017 105.238281 C 99.891698 105.760976 101.649165 106.524827 103.358714 107.530131 C 105.053968 108.535138 106.687008 109.781301 108.215245 111.253474 C 109.758074 112.711687 111.182102 114.381358 112.487624 116.248231 C 113.793147 118.115103 114.952167 120.150072 115.979275 122.339179 C 117.006087 124.542542 117.873286 126.856682 118.580576 129.295855 C 119.287866 131.735029 119.821841 134.256172 120.182795 136.84503 C 120.54375 139.433887 120.732573 142.047692 120.734971 144.686148 Z M 120.734971 144.686148 " stroke="#000000" stroke-width="2" stroke-opacity="1" stroke-miterlimit="4"/><path stroke-linecap="round" transform="matrix(0.273203, 0, 0, 0.273958, 122.303118, 123.637799)" fill-opacity="1" fill="#000000" fill-rule="nonzero" stroke-linejoin="round" d="M 248.004547 194.996371 C 248.647957 173.508694 249.877585 151.735845 254.924779 115.78997 C 257.655697 96.483855 254.367157 50.20051 220.53809 29.853519 C 160.543684 -6.249201 109.757189 30.780327 109.757189 30.780327 C 79.44543 51.098801 123.340289 66.227152 145.444996 67.467648 " stroke="#000000" stroke-width="2" stroke-opacity="1" stroke-miterlimit="4"/><path stroke-linecap="round" transform="matrix(0.273203, 0, 0, 0.273958, 122.303118, 123.637799)" fill-opacity="1" fill="#eeb58d" fill-rule="nonzero" stroke-linejoin="round" d="M 458.413909 426.65549 C 456.483679 390.723873 435.551407 289.87295 404.72492 262.49648 C 379.546143 240.096254 268.407792 228.80346 268.407792 228.80346 L 245.416609 167.976365 L 167.735578 177.914594 L 187.295241 233.280653 C 187.295241 233.280653 76.271274 255.067761 53.994991 280.105824 C 31.733006 305.129628 23.168504 390.823683 26.671514 426.65549 " stroke="#000000" stroke-width="2" stroke-opacity="1" stroke-miterlimit="4"/><path stroke-linecap="round" transform="matrix(0.273203, 0, 0, 0.273958, 122.303118, 123.637799)" fill-opacity="1" fill="#000000" fill-rule="nonzero" stroke-linejoin="round" d="M 165.71956 253.356731 L 229.016804 192.330017 L 199.577223 260.143814 Z M 165.71956 253.356731 " stroke="#000000" stroke-width="2" stroke-opacity="1" stroke-miterlimit="4"/><path stroke-linecap="round" transform="matrix(0.273203, 0, 0, 0.273958, 122.303118, 123.637799)" fill-opacity="1" fill="#fdf4df" fill-rule="nonzero" stroke-linejoin="round" d="M 458.413909 426.65549 C 456.483679 390.723873 435.551407 289.87295 404.72492 262.49648 C 379.546143 240.096254 268.407792 228.80346 268.407792 228.80346 C 244.001107 267.501241 186.894897 271.450867 157.526806 239.882375 C 157.526806 239.882375 76.271274 255.067761 53.952097 280.105824 C 31.63292 305.129628 23.168504 390.823683 26.671514 426.65549 " stroke="#000000" stroke-width="2" stroke-opacity="1" stroke-miterlimit="4"/><path stroke-linecap="round" transform="matrix(0.273203, 0, 0, 0.273958, 122.303118, 123.637799)" fill="none" stroke-linejoin="round" d="M 137.180752 244.34531 C 137.180752 244.34531 166.834804 284.697086 217.67849 278.765517 C 255.496699 274.359617 273.526476 261.355794 289.954878 231.826278 " stroke="#000000" stroke-width="2" stroke-opacity="1" stroke-miterlimit="4"/><path stroke-linecap="round" transform="matrix(0.273203, 0, 0, 0.273958, 122.303118, 123.637799)" fill-opacity="1" fill="#fdf4df" fill-rule="nonzero" stroke-linejoin="round" d="M 154.78159 260.799709 L 171.052713 249.606725 " stroke="#000000" stroke-width="2" stroke-opacity="1" stroke-miterlimit="4"/><path stroke-linecap="round" transform="matrix(0.273203, 0, 0, 0.273958, 122.303118, 123.637799)" fill-opacity="1" fill="#fdf4df" fill-rule="nonzero" stroke-linejoin="round" d="M 183.806529 257.235065 L 171.853401 271.42235 " stroke="#000000" stroke-width="2" stroke-opacity="1" stroke-miterlimit="4"/><path stroke-linecap="round" transform="matrix(0.273203, 0, 0, 0.273958, 122.303118, 123.637799)" fill-opacity="1" fill="#fdf4df" fill-rule="nonzero" stroke-linejoin="round" d="M 202.293842 260.913778 L 199.577223 278.979396 " stroke="#000000" stroke-width="2" stroke-opacity="1" stroke-miterlimit="4"/><path stroke-linecap="round" transform="matrix(0.273203, 0, 0, 0.273958, 122.303118, 123.637799)" fill-opacity="1" fill="#fdf4df" fill-rule="nonzero" stroke-linejoin="round" d="M 221.953592 260.143814 L 226.314482 277.525021 " stroke="#000000" stroke-width="2" stroke-opacity="1" stroke-miterlimit="4"/><path stroke-linecap="round" transform="matrix(0.273203, 0, 0, 0.273958, 122.303118, 123.637799)" fill-opacity="1" fill="#fdf4df" fill-rule="nonzero" stroke-linejoin="round" d="M 241.699129 253.256921 L 254.867587 268.570634 " stroke="#000000" stroke-width="2" stroke-opacity="1" stroke-miterlimit="4"/><path stroke-linecap="round" transform="matrix(0.273203, 0, 0, 0.273958, 122.303118, 123.637799)" fill-opacity="1" fill="#fdf4df" fill-rule="nonzero" stroke-linejoin="round" d="M 258.742345 241.878576 L 275.885646 250.676119 " stroke="#000000" stroke-width="2" stroke-opacity="1" stroke-miterlimit="4"/><path stroke-linecap="round" transform="matrix(0.273203, 0, 0, 0.273958, 122.303118, 123.637799)" fill="none" stroke-linejoin="round" d="M 78.172908 338.252305 C 78.172908 338.252305 72.997032 400.77617 69.79428 428.566139 " stroke="#000000" stroke-width="2" stroke-opacity="1" stroke-miterlimit="4"/><path stroke-linecap="round" transform="matrix(0.273203, 0, 0, 0.273958, 122.303118, 123.637799)" fill="none" stroke-linejoin="round" d="M 329.903489 344.12684 C 329.145695 344.183874 331.433375 426.7553 331.433375 426.7553 " stroke="#000000" stroke-width="2" stroke-opacity="1" stroke-miterlimit="4"/><path stroke-linecap="round" transform="matrix(0.273203, 0, 0, 0.273958, 122.303118, 123.637799)" fill="none" stroke-linejoin="round" d="M 43.214299 304.245597 C 43.214299 304.245597 63.660439 344.12684 76.214082 354.991876 " stroke="#000000" stroke-width="2" stroke-opacity="1" stroke-miterlimit="4"/><path stroke-linecap="round" transform="matrix(0.273203, 0, 0, 0.273958, 122.303118, 123.637799)" fill="none" stroke-linejoin="round" d="M 330.246641 353.337881 C 330.246641 353.337881 371.096025 286.56496 418.994324 281.175217 " stroke="#000000" stroke-width="2" stroke-opacity="1" stroke-miterlimit="4"/><path stroke-linecap="round" transform="matrix(0.273203, 0, 0, 0.273958, 122.303118, 123.637799)" fill-opacity="1" fill="#eeb58d" fill-rule="nonzero" stroke-linejoin="round" d="M 171.109905 252.116235 C 154.524226 258.005028 119.751491 258.803508 95.001654 218.565801 C 74.22666 184.715936 73.912104 110.856501 74.341044 88.185362 C 90.59787 92.334609 120.523583 75.252832 120.523583 75.252832 C 120.523583 75.252832 168.521967 88.399241 177.515409 89.055136 C 186.523149 89.725289 209.113988 102.885956 221.524652 136.464908 C 221.524652 136.464908 229.517234 167.163626 230.804054 177.472578 C 233.563568 214.416554 187.709883 246.227442 171.109905 252.116235 Z M 171.109905 252.116235 " stroke="#000000" stroke-width="2" stroke-opacity="1" stroke-miterlimit="4"/><path stroke-linecap="round" transform="matrix(0.273203, -0.0246562, 0.0245882, 0.273958, 119.049277, 127.514303)" fill-opacity="1" fill="#000000" fill-rule="nonzero" stroke-linejoin="round" d="M 167.447816 146.810133 C 167.446345 148.891753 167.265584 150.900203 166.891352 152.834205 C 166.51712 154.768208 165.978874 156.459313 165.288253 157.937083 C 164.597632 159.414854 163.794457 160.554547 162.892913 161.35744 C 161.978458 162.144912 161.041641 162.545391 160.054096 162.556321 C 159.082006 162.554385 158.131376 162.155139 157.231845 161.346994 C 156.331041 160.552993 155.532977 159.411774 154.836379 157.937481 C 154.139782 156.463188 153.606656 154.761211 153.237001 152.831552 C 152.853163 150.900615 152.675527 148.902686 152.664089 146.805645 C 152.665561 144.724025 152.860504 142.716852 153.234736 140.782849 C 153.607696 138.86299 154.147214 137.157742 154.837835 135.679971 C 155.528457 134.202201 156.331631 133.062507 157.231903 132.273759 C 158.133447 131.470866 159.084447 131.071664 160.056537 131.073601 C 161.042809 131.076814 161.979256 131.474783 162.894243 132.27006 C 163.795047 133.064062 164.593111 134.205281 165.289709 135.679574 C 165.972123 137.15259 166.519433 138.855843 166.889087 140.785503 C 167.258742 142.715163 167.449288 144.728513 167.447816 146.810133 Z M 167.447816 146.810133 " stroke="#000000" stroke-width="2" stroke-opacity="1" stroke-miterlimit="4"/><path stroke-linecap="round" transform="matrix(0.272212, -0.0233054, 0.0232411, 0.272965, 118.87989, 126.182862)" fill-opacity="1" fill="#000000" fill-rule="nonzero" stroke-linejoin="round" d="M 110.095369 151.705616 C 110.103476 153.795635 109.916989 155.811797 109.53712 157.739896 C 109.157252 159.667996 108.624623 161.368396 107.939235 162.841097 C 107.239601 164.312582 106.43965 165.446361 105.538168 166.256642 C 104.6379 167.052716 103.686117 167.443699 102.710099 167.446231 C 101.734082 167.448762 100.792028 167.053501 99.885149 166.24624 C 98.977058 165.453186 98.184768 164.312257 97.478574 162.835228 C 96.786625 161.359416 96.256546 159.668456 95.876516 157.73272 C 95.510732 155.798199 95.32318 153.793033 95.315073 151.703015 C 95.319999 149.62842 95.506486 147.612258 95.886355 145.684158 C 96.251977 143.754842 96.784606 142.054442 97.48424 140.582958 C 98.183874 139.111473 98.970792 137.96227 99.885307 137.167413 C 100.785575 136.371339 101.724325 135.964933 102.714588 135.963617 C 103.689393 135.975292 104.631447 136.370554 105.539538 137.163608 C 106.446417 137.970869 107.23992 139.097591 107.931868 140.573403 C 108.623816 142.049216 109.166928 143.755598 109.532712 145.690119 C 109.913956 147.611648 110.101508 149.616814 110.095369 151.705616 Z M 110.095369 151.705616 " stroke="#000000" stroke-width="2" stroke-opacity="1" stroke-miterlimit="4"/><path stroke-linecap="round" transform="matrix(0.273203, 0, 0, 0.273958, 122.303118, 123.637799)" fill-opacity="1" fill="#eeb58d" fill-rule="nonzero" stroke-linejoin="round" d="M 120.566477 143.993437 L 120.680861 159.164564 C 120.680861 159.164564 110.257619 157.824258 103.794923 163.827119 C 97.31793 169.829981 96.116898 187.924116 123.340289 188.095219 " stroke="#000000" stroke-width="2" stroke-opacity="1" stroke-miterlimit="4"/><path stroke-linecap="round" transform="matrix(0.273203, 0, 0, 0.273958, 122.303118, 123.637799)" fill-opacity="1" fill="#fdf4df" fill-rule="nonzero" stroke-linejoin="round" d="M 74.412534 115.191109 C 74.412534 115.191109 161.487352 128.052347 255.839851 95.913512 C 255.839851 95.913512 256.983691 62.306043 236.265889 37.239463 C 222.739982 20.899132 198.204615 9.064512 163.832224 9.563563 C 76.757406 10.846835 67.763965 76.721465 74.412534 115.191109 Z M 74.412534 115.191109 " stroke="#000000" stroke-width="2" stroke-opacity="1" stroke-miterlimit="4"/><path stroke-linecap="round" transform="matrix(0.273203, 0, 0, 0.273958, 122.303118, 123.637799)" fill-opacity="1" fill="#000000" fill-rule="nonzero" stroke-linejoin="round" d="M 92.756868 105.224363 C 110.429195 107.192047 128.001437 106.450601 145.444996 103.000025 C 145.444996 103.000025 146.445856 84.934406 121.224185 84.364063 C 96.002514 83.807979 91.555836 92.847917 92.756868 105.224363 Z M 92.756868 105.224363 " stroke="#000000" stroke-width="2" stroke-opacity="1" stroke-miterlimit="4"/><path stroke-linecap="round" transform="matrix(0.273203, 0, 0, 0.273958, 122.303118, 123.637799)" fill="none" stroke-linejoin="round" d="M 82.73397 133.270986 C 82.73397 133.270986 90.88383 118.755754 110.043149 126.940178 " stroke="#000000" stroke-width="2" stroke-opacity="1" stroke-miterlimit="4"/><path stroke-linecap="round" transform="matrix(0.273203, 0, 0, 0.273958, 122.303118, 123.637799)" fill="none" stroke-linejoin="round" d="M 87.59529 145.005796 C 87.59529 145.005796 94.115178 129.806152 109.428335 138.375557 " stroke="#000000" stroke-width="2" stroke-opacity="1" stroke-miterlimit="4"/><path stroke-linecap="round" transform="matrix(0.273203, 0, 0, 0.273958, 122.303118, 123.637799)" fill="none" stroke-linejoin="round" d="M 146.217088 140.500085 C 146.217088 140.500085 151.864798 125.186373 166.07701 133.499124 " stroke="#000000" stroke-width="2" stroke-opacity="1" stroke-miterlimit="4"/><path stroke-linecap="round" transform="matrix(0.273203, 0, 0, 0.273958, 122.303118, 123.637799)" fill="none" stroke-linejoin="round" d="M 140.254822 124.444926 C 140.254822 124.444926 157.541104 111.683499 172.053573 124.231048 " stroke="#000000" stroke-width="2" stroke-opacity="1" stroke-miterlimit="4"/><path stroke-linecap="round" transform="matrix(0.273203, 0, 0, 0.273958, 122.303118, 123.637799)" fill-opacity="1" fill="#dd3833" fill-rule="nonzero" stroke-linejoin="round" d="M 98.404578 30.723292 C 98.404578 30.723292 161.1442 0.509365 197.546907 50.998991 C 217.82147 79.088389 215.548088 116.559933 215.548088 116.559933 L 227.386832 110.37171 C 227.872964 108.674939 235.736863 36.626344 176.443059 14.653875 C 176.443059 14.653875 165.891136 10.148164 155.010358 10.276491 C 116.863295 10.68999 98.404578 30.723292 98.404578 30.723292 Z M 98.404578 30.723292 " stroke="#000000" stroke-width="2" stroke-opacity="1" stroke-miterlimit="4"/><path stroke-linecap="round" transform="matrix(0.273144, -0.00568954, 0.00567385, 0.273899, 121.532685, 124.939093)" fill-opacity="1" fill="#dd3833" fill-rule="nonzero" stroke-linejoin="round" d="M 254.477079 137.956462 C 254.479477 140.594918 254.296632 143.201002 253.942249 145.803524 C 253.573866 148.391493 253.049721 150.904918 252.341222 153.343206 C 251.632723 155.781493 250.769349 158.10247 249.737101 160.291584 C 248.704557 162.494954 247.546912 164.524585 246.23528 166.39414 C 244.923648 168.263694 243.501803 169.931296 241.969744 171.396945 C 240.437685 172.862594 238.8103 174.098077 237.101883 175.10369 C 235.39317 176.123558 233.632607 176.88564 231.819899 177.40419 C 230.007487 177.908485 228.171519 178.169842 226.326586 178.174303 C 224.48195 178.164509 222.656642 177.912668 220.836665 177.404228 C 219.031279 176.88183 217.259516 176.117682 215.564262 175.112675 C 213.85501 174.093115 212.221674 172.861208 210.693436 171.389035 C 209.150607 169.930822 207.72658 168.261151 206.421057 166.394278 C 205.115535 164.527406 203.956515 162.492437 202.929703 160.289075 C 201.902594 158.099967 201.035395 155.785827 200.328105 153.346654 C 199.620815 150.90748 199.086841 148.386337 198.725886 145.797479 C 198.364932 143.208622 198.176108 140.594817 198.173711 137.956361 C 198.185905 135.303946 198.354454 132.697565 198.722836 130.109596 C 199.07722 127.507074 199.61566 124.993946 200.324159 122.555658 C 201.032658 120.117371 201.896033 117.796394 202.928281 115.60728 C 203.94653 113.403613 205.11847 111.374278 206.430101 109.504724 C 207.727142 107.649128 209.148987 105.981526 210.695637 104.501919 C 212.227696 103.036269 213.855082 101.800787 215.563499 100.795174 C 217.272212 99.775306 219.018479 99.012927 220.845186 98.508929 C 222.657895 97.990379 224.479568 97.728725 226.3245 97.724264 C 228.183432 97.734355 230.008739 97.986196 231.82842 98.508891 C 233.634103 99.017034 235.39157 99.780885 237.101119 100.786189 C 238.810371 101.805749 240.429413 103.037359 241.971945 104.509828 C 243.500183 105.982001 244.924506 107.637416 246.230029 109.504288 C 247.535552 111.371161 248.708866 113.406427 249.735679 115.609789 C 250.762787 117.798896 251.629986 120.113037 252.337276 122.55221 C 253.044566 124.991384 253.57854 127.512527 253.939495 130.101384 C 254.30045 132.690242 254.474978 135.30375 254.477079 137.956462 Z M 254.477079 137.956462 " stroke="#000000" stroke-width="2" stroke-opacity="1" stroke-miterlimit="4"/><path stroke-linecap="round" transform="matrix(0.273144, -0.00568954, 0.00567385, 0.273899, 121.532685, 124.96924)" fill-opacity="1" fill="#dd3833" fill-rule="nonzero" stroke-linejoin="round" d="M 257.983396 137.833662 C 257.975644 140.272244 257.810944 142.693304 257.475297 145.08229 C 257.139354 147.485532 256.647944 149.799974 256.000178 152.068383 C 255.338414 154.32224 254.536069 156.459083 253.592848 158.493168 C 252.649627 160.527254 251.566714 162.401559 250.358107 164.130637 C 249.149501 165.859715 247.830386 167.401096 246.415055 168.755076 C 244.985429 170.10876 243.488475 171.261382 241.910489 172.184135 C 240.332207 173.121142 238.701483 173.828874 237.032612 174.307628 C 235.349447 174.786084 233.65702 175.021899 231.955333 175.015075 C 230.239055 175.022208 228.542105 174.787295 226.87878 174.310633 C 225.201159 173.833673 223.571162 173.129517 221.989083 172.183907 C 220.406708 171.252553 218.914544 170.109148 217.484002 168.753098 C 216.067754 167.397346 214.755421 165.85835 213.547298 164.121856 C 212.338879 162.399617 211.262371 160.52324 210.30348 158.492428 C 209.358884 156.461913 208.559606 154.320324 207.905646 152.067659 C 207.251982 149.80074 206.756747 147.480064 206.420236 145.091378 C 206.084022 142.688436 205.919643 140.274802 205.9131 137.835923 C 205.921148 135.383085 206.085551 132.976281 206.421494 130.573039 C 206.757141 128.184053 207.248847 125.855356 207.896317 123.601202 C 208.558082 121.347345 209.360723 119.196247 210.303944 117.162161 C 211.261164 115.142628 212.330078 113.25377 213.538388 111.538948 C 214.746994 109.80987 216.06611 108.268489 217.48144 106.914509 C 218.911362 105.546569 220.40802 104.408203 221.986303 103.471195 C 223.564585 102.534187 225.195309 101.826455 226.878474 101.347999 C 228.547049 100.883501 230.239771 100.63343 231.955754 100.640552 C 233.657737 100.633121 235.35439 100.88229 237.032011 101.359249 C 238.709631 101.836209 240.325334 102.540068 241.907709 103.471422 C 243.490084 104.402776 244.996542 105.546478 246.41279 106.902231 C 247.829037 108.257984 249.141074 109.811235 250.349494 111.533474 C 251.557913 113.255713 252.648716 115.132386 253.593312 117.162901 C 254.537908 119.193416 255.351481 121.335303 256.005145 123.602222 C 256.659105 125.854887 257.140045 128.175265 257.476259 130.578207 C 257.81277 132.966894 257.976853 135.394783 257.983396 137.833662 Z M 257.983396 137.833662 " stroke="#000000" stroke-width="2" stroke-opacity="1" stroke-miterlimit="4"/><path stroke-linecap="round" transform="matrix(0.273203, 0, 0, 0.273958, 122.303118, 123.637799)" fill-opacity="1" fill="#383333" fill-rule="nonzero" stroke-linejoin="round" d="M 202.5941 398.537574 L 189.454239 359.739983 C 187.466817 344.611631 172.067871 333.575492 155.053252 335.10116 C 150.878236 335.414848 146.91769 336.527017 143.171614 338.437667 C 139.439836 340.334058 136.222786 342.900602 133.506167 346.094523 L 88.681938 350.101184 C 85.279014 347.477605 81.51864 345.566956 77.386518 344.369235 C 73.254396 343.185773 69.050784 342.786533 64.775683 343.185773 C 47.775361 344.711441 35.593465 358.185798 37.580887 373.342666 L 34.807076 413.566115 C 34.621202 415.034749 34.621202 416.503382 34.807076 417.972016 C 36.336961 429.635533 48.204301 438.133645 61.315567 436.964442 C 71.309868 436.08041 79.116576 429.806636 81.604428 421.707763 L 90.52638 398.323695 L 144.086686 393.518554 L 158.9995 414.778094 C 163.517668 422.249589 172.782771 426.983437 182.777073 426.099405 C 195.888339 424.930202 205.282124 414.52144 203.780834 402.857923 C 203.552066 401.375031 203.16602 399.934914 202.5941 398.537574 Z M 202.5941 398.537574 " stroke="#231f20" stroke-width="2" stroke-opacity="1" stroke-miterlimit="4"/><path stroke-linecap="round" transform="matrix(0.273203, 0, 0, 0.273958, 122.303118, 123.637799)" fill-opacity="1" fill="#000000" fill-rule="nonzero" stroke-linejoin="round" d="M 166.57744 340.462385 C 161.916292 339.592612 151.478752 338.551736 141.970582 343.955737 C 140.898232 344.52608 140.369206 345.42437 140.383504 346.636349 L 140.583676 351.769437 C 140.640868 352.254229 140.798146 352.710504 141.05551 353.124002 C 141.312874 353.537501 141.641728 353.865448 142.070668 354.122103 C 142.48531 354.378757 142.928548 354.535602 143.41468 354.578377 C 143.900812 354.621153 144.372646 354.564119 144.830182 354.393016 C 149.477032 352.910124 157.469614 351.013733 165.36211 352.154419 C 165.819646 352.239971 166.262884 352.225712 166.72042 352.111643 C 167.177956 351.997575 167.5783 351.797955 167.935749 351.512783 C 168.307497 351.227611 168.593457 350.871147 168.807927 350.457648 C 169.022397 350.058408 169.136781 349.616392 169.165377 349.145859 L 169.093887 343.257066 C 169.050993 342.558396 168.793629 341.945277 168.321795 341.41771 C 167.86426 340.890142 167.278042 340.576454 166.57744 340.462385 Z M 166.57744 340.462385 " stroke="#231f20" stroke-width="2" stroke-opacity="1" stroke-miterlimit="4"/><path stroke-linecap="round" transform="matrix(0.273203, 0, 0, 0.273958, 122.303118, 123.637799)" fill-opacity="1" fill="#000000" fill-rule="nonzero" stroke-linejoin="round" d="M 78.430272 349.545099 C 73.883508 348.204793 63.603247 346.094523 53.594647 350.5432 C 52.479403 351.013733 51.864589 351.84073 51.750205 353.052709 L 51.421351 358.185798 C 51.421351 358.670589 51.521437 359.126864 51.735907 359.56888 C 51.950377 360.010896 52.264933 360.381619 52.650979 360.681049 C 53.037025 360.980479 53.465965 361.180099 53.937799 361.26565 C 54.423931 361.365461 54.895765 361.351202 55.367599 361.222875 C 60.143131 360.224774 68.292991 359.155381 76.01391 361.094548 C 76.471446 361.222875 76.914684 361.251392 77.37222 361.194358 C 77.829756 361.123065 78.258696 360.980479 78.65904 360.723825 C 79.045086 360.481429 79.37394 360.153481 79.617006 359.7685 C 79.87437 359.383518 80.045946 358.955761 80.103138 358.499486 L 80.646462 352.639211 C 80.689356 351.926282 80.503482 351.284646 80.08884 350.700044 C 79.674198 350.115442 79.116576 349.730461 78.430272 349.545099 Z M 78.430272 349.545099 " stroke="#231f20" stroke-width="2" stroke-opacity="1" stroke-miterlimit="4"/><path fill="#eeb58d" d="M 186.695312 223.046875 C 186.695312 223.046875 174.613281 213.222656 172.660156 213.03125 C 170.707031 212.839844 165.519531 212.523438 163.144531 213.675781 C 160.765625 214.824219 156.65625 217.058594 159.128906 218.3125 C 161.605469 219.566406 165.464844 217.742188 165.894531 217.71875 C 166.320312 217.699219 170.328125 217.78125 170.984375 218.222656 C 171.644531 218.667969 174.445312 221.511719 174.691406 221.863281 L 174.917969 222.042969 C 172.105469 222.460938 168 223.140625 166.820312 223.664062 C 164.976562 224.5 162.40625 226.988281 161.765625 228.140625 C 161.128906 229.289062 160.675781 233.253906 163.273438 233.257812 C 165.875 233.265625 165.074219 230.910156 165.847656 230.246094 C 166.625 229.582031 167.542969 228.550781 168.457031 228.238281 C 169.367188 227.925781 176.144531 227.550781 176.144531 227.550781 L 176.316406 227.550781 C 174.199219 228.371094 168.300781 230.699219 167.847656 231.066406 C 167.300781 231.515625 164.011719 232.8125 164.296875 235.375 C 164.582031 237.9375 168.4375 236.917969 168.667969 236.6875 C 168.902344 236.457031 170.855469 235.453125 170.855469 235.453125 L 177.617188 234.179688 C 177.617188 234.179688 171.234375 235.871094 170.492188 236.238281 C 169.746094 236.605469 167.863281 237.058594 167.675781 237.84375 C 167.488281 238.632812 167.023438 241.421875 170.660156 240.78125 C 173.171875 240.339844 177.355469 239.429688 178.035156 239.625 C 178.714844 239.816406 182.390625 243.828125 184.988281 245.28125 C 184.988281 245.28125 191.476562 247.199219 196.808594 244.183594 C 199.289062 242.789062 198.859375 241.277344 198.859375 241.277344 C 197.179688 236.40625 186.695312 223.046875 186.695312 223.046875 Z M 186.695312 223.046875 " fill-opacity="1" fill-rule="nonzero"/><path stroke-linecap="round" transform="matrix(0.273203, 0, 0, 0.273958, 122.303118, 123.637799)" fill="none" stroke-linejoin="round" d="M 191.756217 358.542262 C 190.855443 357.301766 180.603777 346.864487 178.187415 345.253267 C 175.785351 343.656307 161.101306 343.356876 159.557122 343.413911 C 157.99864 343.485204 143.872216 350.14396 134.792987 345.581215 C 125.728055 341.004211 140.798146 332.848304 149.49133 328.656282 C 158.184514 324.450002 177.157959 325.590688 184.321257 326.303617 C 191.484555 327.016546 235.693969 362.862611 235.693969 362.862611 C 235.693969 362.862611 274.0698 411.626948 280.203642 429.407395 " stroke="#000000" stroke-width="2" stroke-opacity="1" stroke-miterlimit="4"/><path stroke-linecap="round" transform="matrix(0.273203, 0, 0, 0.273958, 122.303118, 123.637799)" fill="none" stroke-linejoin="round" d="M 202.722782 357.786557 C 202.722782 357.786557 169.722999 362.078389 162.945748 365.115467 C 156.154198 368.166802 146.789008 377.249517 144.444136 381.455797 C 142.113562 385.647819 140.454994 400.120276 149.963164 400.134534 C 159.485632 400.163052 156.554542 391.565129 159.385546 389.141171 C 162.230848 386.717212 165.590878 382.952948 168.936609 381.812262 C 172.268043 380.671575 197.075073 379.302752 197.075073 379.302752 " stroke="#000000" stroke-width="2" stroke-opacity="1" stroke-miterlimit="4"/><path stroke-linecap="round" transform="matrix(0.273203, 0, 0, 0.273958, 122.303118, 123.637799)" fill="none" stroke-linejoin="round" d="M 200.463699 378.233358 C 200.463699 378.233358 168.736437 390.495736 166.749016 392.135472 C 164.775892 393.789467 152.694082 398.509057 153.752134 407.862684 C 154.795888 417.216311 168.893715 413.494822 169.751595 412.653566 C 170.595177 411.81231 177.744177 408.147855 177.744177 408.147855 L 202.494014 403.499559 C 202.494014 403.499559 179.145381 409.673523 176.414463 411.01383 C 173.697843 412.354136 166.806208 414.008131 166.119904 416.874105 C 165.4336 419.754338 163.689244 429.934963 177.000681 427.596556 C 186.194295 425.985337 201.507452 422.663088 203.995304 423.376017 C 206.483156 424.074687 219.937574 438.718247 229.445744 444.022438 " stroke="#000000" stroke-width="2" stroke-opacity="1" stroke-miterlimit="4"/><g clip-path="url(#686e5e24b6)"><path fill="#eeb58d" d="M 127.066406 227.761719 C 127.066406 227.761719 133.675781 216.996094 135.109375 216.433594 C 136.546875 215.867188 140.410156 214.550781 142.519531 215.035156 C 144.632812 215.519531 148.34375 216.570312 146.789062 218.132812 C 145.230469 219.699219 141.820312 218.957031 141.488281 219.015625 C 141.160156 219.078125 138.132812 219.972656 137.746094 220.480469 C 137.363281 220.984375 135.980469 223.972656 135.882812 224.316406 L 135.757812 224.515625 C 138.007812 224.292969 141.308594 224.019531 142.34375 224.242188 C 143.96875 224.570312 146.574219 226.160156 147.359375 226.980469 C 148.148438 227.800781 149.546875 231.074219 147.558594 231.613281 C 145.570312 232.148438 145.574219 229.996094 144.808594 229.589844 C 144.042969 229.179688 143.078125 228.492188 142.296875 228.425781 C 141.519531 228.359375 136.273438 229.414062 136.273438 229.414062 L 136.140625 229.457031 C 137.96875 229.730469 143.0625 230.476562 143.5 230.699219 C 144.027344 230.972656 146.875 231.386719 147.324219 233.609375 C 147.769531 235.832031 144.589844 235.757812 144.339844 235.613281 C 143.691406 235.378906 143.03125 235.179688 142.363281 235.015625 L 136.898438 235.320312 C 136.898438 235.320312 142.199219 235.441406 142.859375 235.59375 C 143.519531 235.742188 145.070312 235.742188 145.421875 236.375 C 145.773438 237.011719 146.859375 239.265625 143.933594 239.464844 C 141.902344 239.605469 138.46875 239.6875 138.011719 239.992188 C 137.554688 240.296875 135.804688 244.433594 134.210938 246.191406 C 134.210938 246.191406 129.773438 249.125 124.921875 247.675781 C 122.667969 247.007812 122.59375 245.644531 122.59375 245.644531 C 122.597656 241.183594 127.066406 227.761719 127.066406 227.761719 Z M 127.066406 227.761719 " fill-opacity="1" fill-rule="nonzero"/></g><g clip-path="url(#04684912f3)"><path stroke-linecap="round" transform="matrix(0.273203, 0, 0, 0.273958, 122.303118, 123.637799)" fill="none" stroke-linejoin="round" d="M 49.705591 367.468132 C 50.063041 366.241894 55.124533 355.348341 56.525737 353.466208 C 57.941239 351.584076 69.036486 348.375896 70.22322 348.1335 C 71.424252 347.876846 83.935002 350.614493 89.625606 344.911061 C 95.31621 339.20763 81.718812 335.372073 73.997892 333.604009 C 66.276973 331.835945 52.136251 336.655345 46.874587 338.694321 C 41.612923 340.747557 17.435006 380.044198 17.435006 380.044198 C 17.435006 380.044198 1.078095 429.050931 1.092393 445.319969 " stroke="#000000" stroke-width="2" stroke-opacity="1" stroke-miterlimit="4"/></g><path stroke-linecap="round" transform="matrix(0.273203, 0, 0, 0.273958, 122.303118, 123.637799)" fill="none" stroke-linejoin="round" d="M 41.169685 369.065093 C 41.169685 369.065093 67.435111 365.956723 73.354482 367.154443 C 79.288152 368.366422 88.839216 374.155405 91.713114 377.163965 C 94.60131 380.158267 99.719994 392.106955 92.442312 394.074639 C 85.16463 396.028064 85.178928 388.171587 82.37652 386.674437 C 79.574112 385.191545 76.042506 382.682035 73.182906 382.439639 C 70.337604 382.197243 51.135391 386.047059 51.135391 386.047059 " stroke="#000000" stroke-width="2" stroke-opacity="1" stroke-miterlimit="4"/><path stroke-linecap="round" transform="matrix(0.273203, 0, 0, 0.273958, 122.303118, 123.637799)" fill="none" stroke-linejoin="round" d="M 48.275791 385.875956 C 48.275791 385.875956 75.642162 389.75429 77.58669 390.75239 C 79.51692 391.736232 89.940162 393.276158 91.584432 401.375031 C 93.214404 409.488162 81.575832 409.217249 80.66076 408.689681 C 78.287292 407.834167 75.87093 407.106979 73.425972 406.508119 L 53.423071 407.620288 C 53.423071 407.620288 72.825456 408.076562 75.241818 408.618388 C 77.65818 409.174473 83.334486 409.160214 84.621306 411.484363 C 85.908126 413.794252 89.88297 422.021452 79.173768 422.748639 C 71.738808 423.24769 59.170867 423.575637 57.498001 424.673547 C 55.825135 425.785716 49.419631 440.885551 43.586047 447.301911 " stroke="#000000" stroke-width="2" stroke-opacity="1" stroke-miterlimit="4"/><path stroke-linecap="round" transform="matrix(0.273203, 0, 0, 0.273958, 122.303118, 123.637799)" fill-opacity="1" fill="#000000" fill-rule="nonzero" stroke-linejoin="round" d="M 113.446073 366.241894 L 129.845879 356.474768 C 130.303415 356.246631 130.617971 355.904425 130.789547 355.433892 C 130.975421 354.963359 130.989719 354.492826 130.818143 354.022293 C 130.646567 353.55176 130.332011 353.195295 129.903071 352.952899 C 129.459833 352.710504 128.987999 352.639211 128.501867 352.753279 L 111.415757 354.15062 L 94.31535 355.533702 C 93.81492 355.505185 93.357384 355.647771 92.95704 355.961459 C 92.556696 356.275148 92.31363 356.674388 92.227842 357.173439 C 92.127756 357.672489 92.213544 358.143022 92.485206 358.585038 C 92.74257 359.012795 93.128616 359.297967 93.614748 359.454811 L 111.372863 366.455773 C 112.102061 366.712427 112.788365 366.641134 113.446073 366.241894 Z M 113.446073 366.241894 " stroke="#231f20" stroke-width="2" stroke-opacity="1" stroke-miterlimit="4"/><path stroke-linecap="round" transform="matrix(0.273203, 0, 0, 0.273958, 122.303118, 123.637799)" fill="none" stroke-linejoin="round" d="M 129.002297 210.65229 C 129.002297 210.65229 157.755574 206.645629 171.724719 193.656065 " stroke="#000000" stroke-width="2" stroke-opacity="1" stroke-miterlimit="4"/><path stroke-linecap="round" transform="matrix(0.273203, 0, 0, 0.273958, 122.303118, 123.637799)" fill="none" stroke-linejoin="round" d="M 74.627004 177.173148 C 74.627004 177.173148 66.634423 235.847197 129.016595 232.482173 " stroke="#000000" stroke-width="2" stroke-opacity="1" stroke-miterlimit="4"/><path stroke-linecap="round" transform="matrix(0.273057, 0.00893976, -0.00891511, 0.273812, 124.398584, 122.514566)" fill-opacity="1" fill="#000000" fill-rule="nonzero" stroke-linejoin="round" d="M 119.682339 224.840202 L 138.351298 224.84412 C 138.96625 224.838308 139.556809 224.961689 140.122509 225.20001 C 140.702034 225.423614 141.199539 225.764025 141.64314 226.20606 C 142.071985 226.63431 142.403123 227.137081 142.650846 227.713906 C 142.883813 228.276947 143.003388 228.872222 142.994814 229.485948 L 143.004459 235.477427 C 142.995885 236.091152 142.886813 236.693893 142.647733 237.25808 C 142.408652 237.822266 142.067677 238.332715 141.638634 238.774708 C 141.209125 239.20245 140.704907 239.532769 140.126446 239.779914 C 139.56181 240.012341 138.964871 240.131694 138.349454 240.123255 L 119.68096 240.133588 C 119.065543 240.125148 118.47545 240.016019 117.89546 239.778164 C 117.329759 239.539842 116.832254 239.199431 116.389119 238.771648 C 115.959809 238.329147 115.61438 237.826842 115.381413 237.263802 C 115.14798 236.68651 115.028406 236.091234 115.036979 235.477509 L 115.027335 229.48603 C 115.035908 228.872304 115.145445 228.283815 115.384061 227.705377 C 115.623142 227.14119 115.949826 226.631208 116.393625 226.202999 C 116.822668 225.761006 117.326886 225.430688 117.905812 225.197794 C 118.469983 224.951115 119.067388 224.846013 119.682339 224.840202 Z M 119.682339 224.840202 " stroke="#6d6e71" stroke-width="2" stroke-opacity="1" stroke-miterlimit="4"/><path stroke-linecap="round" transform="matrix(0.273203, 0, 0, 0.273958, 122.303118, 123.637799)" fill-opacity="1" fill="#fdf4df" fill-rule="nonzero" stroke-linejoin="round" d="M 171.753315 290.67143 C 171.753315 290.67143 212.802872 304.787423 249.234175 278.993655 " stroke="#000000" stroke-width="2" stroke-opacity="1" stroke-miterlimit="4"/><path stroke-linecap="round" transform="matrix(0.273203, 0, 0, 0.273958, 122.303118, 123.637799)" fill-opacity="1" fill="#fdf4df" fill-rule="nonzero" stroke-linejoin="round" d="M 319.322969 348.604033 C 319.322969 348.604033 324.570335 372.70103 329.760509 385.43394 " stroke="#000000" stroke-width="2" stroke-opacity="1" stroke-miterlimit="4"/><g fill="#654e38" fill-opacity="1"><g transform="translate(118.433705, 260.401389)"><g><path d="M 12.277344 0.289062 C 19.367188 0.289062 23.617188 -2.339844 23.617188 -6.949219 C 23.652344 -15.011719 8.855469 -13.859375 8.855469 -17.785156 C 8.855469 -19.222656 11.050781 -19.90625 13.609375 -19.90625 C 15.984375 -19.871094 18.539062 -19.007812 20.484375 -17.496094 C 21.097656 -16.847656 21.960938 -17.171875 21.925781 -18.214844 C 21.886719 -19.765625 21.78125 -21.601562 21.707031 -23.113281 C 21.707031 -23.542969 21.457031 -23.941406 21.023438 -24.121094 C 18.574219 -25.019531 15.085938 -25.488281 12.277344 -25.488281 C 5.832031 -25.488281 1.476562 -23.363281 1.476562 -18.71875 C 1.476562 -10.835938 15.625 -12.132812 15.625 -7.957031 C 15.589844 -6.445312 14.039062 -5.542969 11.195312 -5.542969 C 7.882812 -5.542969 4.609375 -6.515625 2.230469 -8.855469 C 1.65625 -9.503906 0.71875 -9.253906 0.71875 -8.207031 C 0.71875 -6.300781 0.757812 -4.320312 0.757812 -2.484375 C 0.792969 -1.945312 1.042969 -1.546875 1.441406 -1.402344 C 4.429688 -0.433594 9.214844 0.289062 12.277344 0.289062 Z M 12.277344 0.289062 "/></g></g></g><g fill="#654e38" fill-opacity="1"><g transform="translate(142.697753, 260.401389)"><g><path d="M 4.859375 0.144531 C 5.578125 0.144531 7.054688 0.109375 7.882812 0 C 8.386719 -0.0703125 8.855469 -0.46875 8.855469 -1.042969 C 8.855469 -9.539062 8.496094 -18.898438 8.171875 -24.265625 C 8.136719 -24.769531 7.777344 -25.09375 7.273438 -25.199219 C 6.625 -25.308594 5.507812 -25.34375 4.894531 -25.34375 C 4.320312 -25.34375 3.132812 -25.308594 2.410156 -25.199219 C 1.90625 -25.09375 1.511719 -24.769531 1.476562 -24.265625 C 1.152344 -18.898438 0.828125 -9.539062 0.828125 -1.042969 C 0.828125 -0.46875 1.261719 -0.0703125 1.800781 0 C 2.628906 0.109375 4.140625 0.144531 4.859375 0.144531 Z M 4.859375 0.144531 "/></g></g></g><g fill="#654e38" fill-opacity="1"><g transform="translate(152.381777, 260.401389)"><g><path d="M 4.714844 0.144531 C 5.398438 0.144531 7.019531 0.109375 7.847656 0 C 8.386719 -0.0703125 8.855469 -0.46875 8.820312 -1.078125 C 8.566406 -3.457031 8.460938 -7.34375 8.53125 -9.613281 C 8.605469 -12.636719 8.855469 -14.398438 9.46875 -14.398438 C 10.261719 -14.398438 10.800781 -12.382812 11.410156 -10.117188 C 11.914062 -8.640625 12.5625 -6.910156 13.175781 -5.363281 C 13.824219 -3.816406 14.578125 -2.953125 15.910156 -2.953125 C 17.242188 -2.953125 18.035156 -3.707031 18.683594 -5.363281 C 19.261719 -6.910156 19.945312 -8.605469 20.410156 -10.078125 C 21.058594 -12.347656 21.5625 -14.4375 22.320312 -14.4375 C 22.96875 -14.4375 23.183594 -12.707031 23.292969 -9.683594 C 23.363281 -7.414062 23.257812 -3.492188 23.003906 -1.078125 C 22.933594 -0.46875 23.398438 -0.0703125 23.976562 0 C 24.804688 0.109375 26.496094 0.144531 27.179688 0.144531 C 27.898438 0.144531 29.304688 0.109375 30.203125 0 C 30.742188 -0.0703125 31.140625 -0.46875 31.105469 -1.078125 C 30.925781 -9.574219 29.914062 -18.898438 29.160156 -24.265625 C 29.050781 -24.804688 28.691406 -25.128906 28.1875 -25.199219 C 27.289062 -25.308594 25.667969 -25.34375 24.875 -25.34375 C 24.046875 -25.34375 22.644531 -25.308594 21.816406 -25.199219 C 20.914062 -25.09375 20.339844 -24.839844 20.050781 -23.976562 C 19.546875 -22.570312 18.863281 -19.691406 18.253906 -17.566406 C 17.496094 -15.121094 16.703125 -12.996094 15.949219 -12.996094 C 15.15625 -12.996094 14.292969 -15.085938 13.535156 -17.640625 C 12.960938 -19.65625 12.238281 -22.570312 11.773438 -23.941406 C 11.449219 -24.839844 10.90625 -25.054688 10.007812 -25.199219 C 9.179688 -25.308594 7.667969 -25.34375 6.839844 -25.34375 C 6.046875 -25.34375 4.464844 -25.273438 3.636719 -25.199219 C 3.132812 -25.128906 2.734375 -24.804688 2.664062 -24.265625 C 1.945312 -18.9375 0.898438 -9.574219 0.683594 -1.078125 C 0.683594 -0.46875 1.078125 -0.0703125 1.621094 0 C 2.519531 0.109375 3.996094 0.144531 4.714844 0.144531 Z M 4.714844 0.144531 "/></g></g></g><g fill="#654e38" fill-opacity="1"><g transform="translate(184.205837, 260.401389)"><g><path d="M 5.148438 0.144531 C 6.011719 0.144531 7.523438 0.144531 8.425781 0 C 9 -0.0703125 9.433594 -0.539062 9.359375 -1.117188 C 9.179688 -2.84375 8.28125 -5.292969 8.28125 -7.8125 C 8.242188 -8.710938 8.566406 -9.144531 9.109375 -9.179688 C 16.847656 -8.929688 23.328125 -12.382812 23.328125 -18.683594 C 23.328125 -23.074219 19.261719 -25.488281 12.347656 -25.488281 C 9.214844 -25.488281 4.859375 -25.378906 2.554688 -25.234375 C 2.089844 -25.199219 1.691406 -24.804688 1.65625 -24.300781 C 1.222656 -19.546875 0.863281 -8.929688 0.863281 -0.972656 C 0.863281 -0.433594 1.261719 -0.0703125 1.765625 0 C 2.484375 0.0703125 4.066406 0.144531 5.148438 0.144531 Z M 9.683594 -13.140625 C 8.890625 -13.105469 8.460938 -13.390625 8.386719 -14.074219 C 8.28125 -15.660156 8.28125 -17.53125 8.386719 -18.792969 C 8.460938 -19.367188 8.820312 -19.800781 9.503906 -19.835938 C 10.117188 -19.871094 10.691406 -19.90625 11.484375 -19.90625 C 14.761719 -19.90625 16.199219 -18.9375 16.199219 -17.242188 C 16.199219 -15.226562 14.113281 -13.210938 9.683594 -13.140625 Z M 9.683594 -13.140625 "/></g></g></g><g fill="#654e38" fill-opacity="1"><g transform="translate(208.073885, 260.401389)"><g><path d="M 11.554688 0.144531 C 14.617188 0.144531 20.230469 0.144531 22.679688 0 C 23.21875 -0.0351562 23.542969 -0.394531 23.507812 -0.898438 C 23.4375 -2.699219 23.21875 -7.523438 23.003906 -9.359375 C 22.933594 -10.367188 21.851562 -10.511719 21.382812 -9.683594 C 19.691406 -6.804688 17.820312 -5.722656 13.714844 -5.722656 C 10.078125 -5.722656 8.136719 -7.054688 8.101562 -9.898438 C 8.101562 -15.300781 9 -19.476562 9.972656 -24.085938 C 10.117188 -24.660156 9.648438 -25.128906 9.035156 -25.199219 C 8.171875 -25.308594 7.199219 -25.34375 6.300781 -25.34375 C 4.96875 -25.34375 3.960938 -25.34375 2.699219 -25.199219 C 2.160156 -25.128906 1.726562 -24.875 1.691406 -24.335938 C 1.222656 -18.394531 0.9375 -8.640625 0.863281 -0.972656 C 0.863281 -0.394531 1.296875 -0.0351562 1.871094 0 C 3.5625 0.109375 8.964844 0.144531 11.554688 0.144531 Z M 11.554688 0.144531 "/></g></g></g><g fill="#654e38" fill-opacity="1"><g transform="translate(232.193932, 260.401389)"><g><path d="M 11.554688 0.144531 C 14.617188 0.144531 20.375 0.144531 22.789062 0 C 23.328125 -0.0351562 23.652344 -0.394531 23.652344 -0.898438 C 23.578125 -2.699219 23.363281 -7.054688 23.148438 -8.890625 C 23.039062 -9.898438 21.960938 -10.007812 21.527344 -9.214844 C 19.800781 -6.371094 17.964844 -5.292969 13.714844 -5.292969 C 10.546875 -5.292969 8.101562 -6.265625 8.101562 -8.675781 L 8.101562 -9.46875 C 8.101562 -11.410156 9.792969 -12.097656 12.203125 -12.132812 C 14.003906 -12.167969 15.949219 -11.878906 17.460938 -11.015625 C 18.035156 -10.511719 18.683594 -10.765625 18.683594 -11.519531 L 18.683594 -14.617188 C 18.683594 -15.191406 18.179688 -15.589844 17.640625 -15.515625 C 15.875 -15.371094 13.789062 -15.265625 11.988281 -15.265625 C 9.394531 -15.265625 8.101562 -16.019531 8.101562 -17.28125 L 8.101562 -17.566406 C 8.101562 -19.1875 9.9375 -20.015625 12.636719 -20.015625 C 16.234375 -20.015625 18.648438 -19.117188 20.304688 -17.316406 C 20.914062 -16.558594 21.816406 -16.8125 21.78125 -17.746094 C 21.742188 -19.222656 21.636719 -22.753906 21.492188 -24.265625 C 21.457031 -24.839844 21.097656 -25.164062 20.519531 -25.199219 C 18.394531 -25.308594 14.652344 -25.34375 11.628906 -25.34375 C 9.144531 -25.34375 4.140625 -25.308594 2.699219 -25.199219 C 2.160156 -25.164062 1.726562 -24.875 1.691406 -24.335938 C 1.222656 -18.394531 0.9375 -8.640625 0.863281 -0.972656 C 0.863281 -0.394531 1.296875 -0.0351562 1.871094 0 C 3.5625 0.109375 8.964844 0.144531 11.554688 0.144531 Z M 11.554688 0.144531 "/></g></g></g><g fill="#654e38" fill-opacity="1"><g transform="translate(152.537455, 283.498781)"><g><path d="M 5.421875 -0.25 C 6.128906 -0.25 6.796875 -0.648438 7.421875 -1.453125 C 7.773438 -1.878906 7.953125 -2.140625 7.953125 -2.234375 C 7.953125 -2.304688 7.566406 -2.34375 6.796875 -2.34375 C 6.035156 -2.34375 5.550781 -2.363281 5.34375 -2.40625 C 5.144531 -2.457031 4.953125 -2.566406 4.765625 -2.734375 C 4.585938 -2.898438 4.492188 -3.066406 4.484375 -3.234375 C 4.472656 -3.398438 4.535156 -3.59375 4.671875 -3.8125 C 4.816406 -4.03125 5.019531 -4.160156 5.28125 -4.203125 C 5.550781 -4.242188 6.238281 -4.265625 7.34375 -4.265625 C 8.445312 -4.273438 9.117188 -4.253906 9.359375 -4.203125 C 9.597656 -4.160156 9.859375 -4 10.140625 -3.71875 C 10.429688 -3.445312 10.570312 -3.171875 10.5625 -2.890625 C 10.5625 -2.617188 10.234375 -2.023438 9.578125 -1.109375 C 8.929688 -0.203125 8.390625 0.429688 7.953125 0.796875 C 7.523438 1.128906 7.128906 1.351562 6.765625 1.46875 C 6.410156 1.59375 5.941406 1.660156 5.359375 1.671875 C 4.128906 1.660156 3.046875 1.171875 2.109375 0.203125 C 1.492188 -0.429688 1.078125 -1.097656 0.859375 -1.796875 C 0.648438 -2.492188 0.546875 -3.601562 0.546875 -5.125 C 0.546875 -6.65625 0.726562 -7.882812 1.09375 -8.8125 C 1.46875 -9.75 2.078125 -10.441406 2.921875 -10.890625 C 3.253906 -11.066406 3.539062 -11.164062 3.78125 -11.1875 C 4.019531 -11.21875 4.550781 -11.207031 5.375 -11.15625 C 6.207031 -11.113281 6.851562 -11.03125 7.3125 -10.90625 C 7.757812 -10.757812 8.222656 -10.484375 8.703125 -10.078125 C 9.191406 -9.671875 9.554688 -9.25 9.796875 -8.8125 C 10.046875 -8.382812 10.175781 -8.125 10.1875 -8.03125 C 10.195312 -7.9375 10.101562 -7.734375 9.90625 -7.421875 C 9.71875 -7.109375 9.457031 -6.972656 9.125 -7.015625 C 8.789062 -7.066406 8.484375 -7.316406 8.203125 -7.765625 C 7.878906 -8.242188 7.585938 -8.566406 7.328125 -8.734375 C 7.066406 -8.898438 6.523438 -9.046875 5.703125 -9.171875 C 4.890625 -9.304688 4.328125 -9.328125 4.015625 -9.234375 C 3.515625 -9.078125 3.113281 -8.503906 2.8125 -7.515625 C 2.519531 -6.535156 2.394531 -5.460938 2.4375 -4.296875 C 2.488281 -3.140625 2.726562 -2.242188 3.15625 -1.609375 C 3.375 -1.234375 3.710938 -0.910156 4.171875 -0.640625 C 4.628906 -0.378906 5.046875 -0.25 5.421875 -0.25 Z M 5.421875 -0.25 "/></g></g></g><g fill="#654e38" fill-opacity="1"><g transform="translate(165.443418, 283.498781)"><g><path d="M 7.625 -4.3125 C 7.601562 -4.507812 7.25 -5.476562 6.5625 -7.21875 C 5.757812 -5.707031 5.347656 -4.847656 5.328125 -4.640625 C 5.347656 -4.597656 5.726562 -4.523438 6.46875 -4.421875 C 7.21875 -4.328125 7.601562 -4.289062 7.625 -4.3125 Z M 0.90625 0.28125 C 0.664062 0.0390625 0.546875 -0.144531 0.546875 -0.28125 C 0.546875 -0.425781 0.75 -0.796875 1.15625 -1.390625 C 1.5625 -1.992188 2.421875 -3.566406 3.734375 -6.109375 C 5.054688 -8.660156 5.8125 -10.070312 6 -10.34375 C 6.125 -10.53125 6.351562 -10.597656 6.6875 -10.546875 C 7.03125 -10.492188 7.300781 -10.347656 7.5 -10.109375 C 7.707031 -9.867188 7.894531 -9.472656 8.0625 -8.921875 C 8.226562 -8.367188 8.644531 -7.203125 9.3125 -5.421875 C 9.988281 -3.648438 10.457031 -2.453125 10.71875 -1.828125 C 10.988281 -1.210938 11.144531 -0.765625 11.1875 -0.484375 C 11.238281 -0.210938 11.203125 -0.00390625 11.078125 0.140625 C 10.960938 0.285156 10.742188 0.382812 10.421875 0.4375 C 10.109375 0.476562 9.835938 0.382812 9.609375 0.15625 C 9.378906 -0.0703125 9.179688 -0.390625 9.015625 -0.796875 C 8.835938 -1.203125 8.710938 -1.476562 8.640625 -1.625 C 8.566406 -1.769531 8.472656 -1.882812 8.359375 -1.96875 C 8.234375 -2.019531 8.125 -2.054688 8.03125 -2.078125 C 7.9375 -2.109375 7.78125 -2.144531 7.5625 -2.1875 C 7.34375 -2.238281 7.019531 -2.320312 6.59375 -2.4375 C 6.175781 -2.5625 5.40625 -2.65625 4.28125 -2.71875 L 3.328125 -1.203125 C 2.867188 -0.460938 2.519531 0.0234375 2.28125 0.265625 C 2.03125 0.515625 1.796875 0.640625 1.578125 0.640625 C 1.367188 0.640625 1.144531 0.519531 0.90625 0.28125 Z M 0.90625 0.28125 "/></g></g></g><g fill="#654e38" fill-opacity="1"><g transform="translate(178.997381, 283.498781)"><g><path d="M 10.609375 -0.078125 C 10.148438 -0.078125 9.867188 -0.207031 9.765625 -0.46875 C 9.671875 -0.726562 9.613281 -1.484375 9.59375 -2.734375 C 9.59375 -3.984375 9.550781 -4.738281 9.46875 -5 C 9.414062 -5.125 9.304688 -5.03125 9.140625 -4.71875 C 8.972656 -4.40625 8.710938 -3.851562 8.359375 -3.0625 C 8.015625 -2.269531 7.757812 -1.695312 7.59375 -1.34375 C 7.425781 -1 7.25 -0.726562 7.0625 -0.53125 C 6.882812 -0.34375 6.726562 -0.257812 6.59375 -0.28125 C 6.457031 -0.300781 6.253906 -0.378906 5.984375 -0.515625 C 5.722656 -0.648438 5.304688 -1.148438 4.734375 -2.015625 C 4.160156 -2.878906 3.65625 -3.757812 3.21875 -4.65625 C 2.988281 -5.09375 2.832031 -5.3125 2.75 -5.3125 C 2.675781 -5.3125 2.601562 -4.289062 2.53125 -2.25 C 2.46875 -0.207031 2.382812 1.015625 2.28125 1.421875 C 2.1875 1.828125 1.9375 2.03125 1.53125 2.03125 C 1.269531 2.039062 1.050781 1.960938 0.875 1.796875 C 0.707031 1.628906 0.601562 1.410156 0.5625 1.140625 C 0.53125 0.878906 0.519531 0.1875 0.53125 -0.9375 C 0.550781 -2.070312 0.617188 -3.550781 0.734375 -5.375 C 0.859375 -7.207031 0.957031 -8.3125 1.03125 -8.6875 C 1.101562 -9.0625 1.242188 -9.378906 1.453125 -9.640625 C 1.691406 -9.910156 1.957031 -10.03125 2.25 -10 C 2.539062 -9.976562 2.742188 -9.90625 2.859375 -9.78125 C 2.984375 -9.664062 3.226562 -9.195312 3.59375 -8.375 C 3.96875 -7.5625 4.476562 -6.539062 5.125 -5.3125 C 5.78125 -4.09375 6.140625 -3.46875 6.203125 -3.4375 C 6.328125 -3.40625 6.757812 -4.265625 7.5 -6.015625 C 8.25 -7.765625 8.765625 -8.828125 9.046875 -9.203125 C 9.253906 -9.429688 9.507812 -9.578125 9.8125 -9.640625 C 10.113281 -9.710938 10.367188 -9.675781 10.578125 -9.53125 C 10.796875 -9.394531 10.992188 -8.773438 11.171875 -7.671875 C 11.347656 -6.566406 11.445312 -5.425781 11.46875 -4.25 C 11.488281 -3.070312 11.507812 -2.242188 11.53125 -1.765625 C 11.5625 -1.285156 11.53125 -0.921875 11.4375 -0.671875 C 11.363281 -0.410156 11.265625 -0.242188 11.140625 -0.171875 C 11.023438 -0.109375 10.847656 -0.078125 10.609375 -0.078125 Z M 10.609375 -0.078125 "/></g></g></g><g fill="#654e38" fill-opacity="1"><g transform="translate(192.893348, 283.498781)"><g><path d="M 0.625 -10.984375 C 0.78125 -11.148438 1.019531 -11.234375 1.34375 -11.234375 C 1.675781 -11.234375 1.9375 -11.140625 2.125 -10.953125 C 2.3125 -10.773438 2.5 -10.035156 2.6875 -8.734375 C 2.851562 -7.421875 2.957031 -5.734375 3 -3.671875 C 3.0625 -1.609375 3.128906 -0.28125 3.203125 0.3125 C 3.273438 0.914062 3.226562 1.332031 3.0625 1.5625 C 2.90625 1.75 2.65625 1.851562 2.3125 1.875 C 1.976562 1.894531 1.742188 1.820312 1.609375 1.65625 C 1.429688 1.488281 1.28125 0.796875 1.15625 -0.421875 C 1.039062 -1.648438 0.984375 -3.078125 0.984375 -4.703125 C 0.984375 -6.335938 0.890625 -7.738281 0.703125 -8.90625 C 0.503906 -10.082031 0.476562 -10.773438 0.625 -10.984375 Z M 0.625 -10.984375 "/></g></g></g><g fill="#654e38" fill-opacity="1"><g transform="translate(198.473333, 283.498781)"><g><path d="M 0.859375 -4.640625 C 0.648438 -6.222656 0.546875 -7.191406 0.546875 -7.546875 C 0.546875 -7.910156 0.648438 -8.238281 0.859375 -8.53125 C 1.078125 -8.820312 1.316406 -8.972656 1.578125 -8.984375 C 1.847656 -8.972656 2.046875 -8.914062 2.171875 -8.8125 C 2.304688 -8.71875 2.460938 -8.53125 2.640625 -8.25 C 2.960938 -7.707031 3.488281 -7.097656 4.21875 -6.421875 C 4.789062 -5.859375 5.601562 -5.15625 6.65625 -4.3125 C 7.71875 -3.476562 8.316406 -3.054688 8.453125 -3.046875 C 8.566406 -3.046875 8.597656 -3.238281 8.546875 -3.625 C 8.472656 -4.90625 8.414062 -6.097656 8.375 -7.203125 C 8.3125 -8.304688 8.289062 -9.023438 8.3125 -9.359375 C 8.34375 -9.691406 8.425781 -9.9375 8.5625 -10.09375 C 8.707031 -10.25 8.945312 -10.335938 9.28125 -10.359375 C 9.625 -10.390625 9.847656 -10.335938 9.953125 -10.203125 C 10.054688 -10.078125 10.144531 -9.582031 10.21875 -8.71875 C 10.289062 -7.851562 10.367188 -6.445312 10.453125 -4.5 C 10.535156 -2.550781 10.566406 -1.46875 10.546875 -1.25 C 10.523438 -1.039062 10.410156 -0.863281 10.203125 -0.71875 C 9.734375 -0.363281 9.148438 -0.351562 8.453125 -0.6875 C 7.765625 -1.019531 6.675781 -1.773438 5.1875 -2.953125 C 3.695312 -4.148438 2.929688 -4.726562 2.890625 -4.6875 C 2.859375 -4.65625 2.925781 -4.140625 3.09375 -3.140625 C 3.257812 -2.148438 3.34375 -1.535156 3.34375 -1.296875 C 3.34375 -1.054688 3.28125 -0.847656 3.15625 -0.671875 C 2.894531 -0.273438 2.566406 -0.144531 2.171875 -0.28125 C 1.773438 -0.425781 1.507812 -0.789062 1.375 -1.375 C 1.25 -1.96875 1.078125 -3.054688 0.859375 -4.640625 Z M 0.859375 -4.640625 "/></g></g></g><g fill="#654e38" fill-opacity="1"><g transform="translate(211.361296, 283.498781)"><g><path d="M 5.421875 -0.25 C 6.128906 -0.25 6.796875 -0.648438 7.421875 -1.453125 C 7.773438 -1.878906 7.953125 -2.140625 7.953125 -2.234375 C 7.953125 -2.304688 7.566406 -2.34375 6.796875 -2.34375 C 6.035156 -2.34375 5.550781 -2.363281 5.34375 -2.40625 C 5.144531 -2.457031 4.953125 -2.566406 4.765625 -2.734375 C 4.585938 -2.898438 4.492188 -3.066406 4.484375 -3.234375 C 4.472656 -3.398438 4.535156 -3.59375 4.671875 -3.8125 C 4.816406 -4.03125 5.019531 -4.160156 5.28125 -4.203125 C 5.550781 -4.242188 6.238281 -4.265625 7.34375 -4.265625 C 8.445312 -4.273438 9.117188 -4.253906 9.359375 -4.203125 C 9.597656 -4.160156 9.859375 -4 10.140625 -3.71875 C 10.429688 -3.445312 10.570312 -3.171875 10.5625 -2.890625 C 10.5625 -2.617188 10.234375 -2.023438 9.578125 -1.109375 C 8.929688 -0.203125 8.390625 0.429688 7.953125 0.796875 C 7.523438 1.128906 7.128906 1.351562 6.765625 1.46875 C 6.410156 1.59375 5.941406 1.660156 5.359375 1.671875 C 4.128906 1.660156 3.046875 1.171875 2.109375 0.203125 C 1.492188 -0.429688 1.078125 -1.097656 0.859375 -1.796875 C 0.648438 -2.492188 0.546875 -3.601562 0.546875 -5.125 C 0.546875 -6.65625 0.726562 -7.882812 1.09375 -8.8125 C 1.46875 -9.75 2.078125 -10.441406 2.921875 -10.890625 C 3.253906 -11.066406 3.539062 -11.164062 3.78125 -11.1875 C 4.019531 -11.21875 4.550781 -11.207031 5.375 -11.15625 C 6.207031 -11.113281 6.851562 -11.03125 7.3125 -10.90625 C 7.757812 -10.757812 8.222656 -10.484375 8.703125 -10.078125 C 9.191406 -9.671875 9.554688 -9.25 9.796875 -8.8125 C 10.046875 -8.382812 10.175781 -8.125 10.1875 -8.03125 C 10.195312 -7.9375 10.101562 -7.734375 9.90625 -7.421875 C 9.71875 -7.109375 9.457031 -6.972656 9.125 -7.015625 C 8.789062 -7.066406 8.484375 -7.316406 8.203125 -7.765625 C 7.878906 -8.242188 7.585938 -8.566406 7.328125 -8.734375 C 7.066406 -8.898438 6.523438 -9.046875 5.703125 -9.171875 C 4.890625 -9.304688 4.328125 -9.328125 4.015625 -9.234375 C 3.515625 -9.078125 3.113281 -8.503906 2.8125 -7.515625 C 2.519531 -6.535156 2.394531 -5.460938 2.4375 -4.296875 C 2.488281 -3.140625 2.726562 -2.242188 3.15625 -1.609375 C 3.375 -1.234375 3.710938 -0.910156 4.171875 -0.640625 C 4.628906 -0.378906 5.046875 -0.25 5.421875 -0.25 Z M 5.421875 -0.25 "/></g></g></g></svg>